<svg width="136" height="15" viewBox="0 0 136 15" fill="none" xmlns="http://www.w3.org/2000/svg">
<path d="M5.768 7.432V12H4.216V7.432L0.016 0.535999H1.376C1.51467 0.535999 1.624 0.570666 1.704 0.639999C1.784 0.703999 1.85333 0.789333 1.912 0.896L4.536 5.352C4.632 5.53867 4.72 5.71467 4.8 5.88C4.88 6.04 4.94933 6.20267 5.008 6.368C5.06667 6.20267 5.13333 6.04 5.208 5.88C5.28267 5.71467 5.36533 5.53867 5.456 5.352L8.072 0.896C8.12 0.805333 8.18667 0.722666 8.272 0.648C8.35733 0.573333 8.46667 0.535999 8.6 0.535999H9.968L5.768 7.432ZM14.7864 7.064C14.7864 6.73333 14.7384 6.432 14.6424 6.16C14.5517 5.88267 14.4157 5.64533 14.2344 5.448C14.0584 5.24533 13.8424 5.09067 13.5864 4.984C13.3304 4.872 13.0397 4.816 12.7144 4.816C12.0317 4.816 11.4904 5.016 11.0904 5.416C10.6957 5.81067 10.4504 6.36 10.3544 7.064H14.7864ZM15.9384 10.864C15.7624 11.0773 15.5517 11.264 15.3064 11.424C15.061 11.5787 14.797 11.7067 14.5144 11.808C14.237 11.9093 13.949 11.984 13.6504 12.032C13.3517 12.0853 13.0557 12.112 12.7624 12.112C12.2024 12.112 11.685 12.0187 11.2104 11.832C10.741 11.64 10.333 11.3627 9.98638 11C9.64504 10.632 9.37838 10.1787 9.18638 9.64C8.99438 9.10133 8.89838 8.48267 8.89838 7.784C8.89838 7.21867 8.98371 6.69067 9.15438 6.2C9.33038 5.70933 9.58104 5.28533 9.90638 4.928C10.2317 4.56533 10.629 4.28267 11.0984 4.08C11.5677 3.872 12.0957 3.768 12.6824 3.768C13.1677 3.768 13.6157 3.85067 14.0264 4.016C14.4424 4.176 14.7997 4.41067 15.0984 4.72C15.4024 5.024 15.6397 5.40267 15.8104 5.856C15.981 6.304 16.0664 6.816 16.0664 7.392C16.0664 7.616 16.0424 7.76533 15.9944 7.84C15.9464 7.91467 15.8557 7.952 15.7224 7.952H10.3064C10.3224 8.464 10.3917 8.90933 10.5144 9.288C10.6424 9.66667 10.8184 9.984 11.0424 10.24C11.2664 10.4907 11.533 10.68 11.8424 10.808C12.1517 10.9307 12.4984 10.992 12.8824 10.992C13.2397 10.992 13.5464 10.952 13.8024 10.872C14.0637 10.7867 14.2877 10.696 14.4744 10.6C14.661 10.504 14.8157 10.416 14.9384 10.336C15.0664 10.2507 15.1757 10.208 15.2664 10.208C15.3837 10.208 15.4744 10.2533 15.5384 10.344L15.9384 10.864ZM22.2075 8.352C21.5515 8.37333 20.9915 8.42667 20.5275 8.512C20.0688 8.592 19.6928 8.69867 19.3995 8.832C19.1115 8.96533 18.9008 9.12267 18.7675 9.304C18.6395 9.48533 18.5755 9.688 18.5755 9.912C18.5755 10.1253 18.6102 10.3093 18.6795 10.464C18.7488 10.6187 18.8422 10.7467 18.9595 10.848C19.0822 10.944 19.2235 11.016 19.3835 11.064C19.5488 11.1067 19.7248 11.128 19.9115 11.128C20.1622 11.128 20.3915 11.104 20.5995 11.056C20.8075 11.0027 21.0022 10.928 21.1835 10.832C21.3702 10.736 21.5462 10.6213 21.7115 10.488C21.8822 10.3547 22.0475 10.2027 22.2075 10.032V8.352ZM17.6075 5.04C18.0555 4.608 18.5382 4.28533 19.0555 4.072C19.5728 3.85867 20.1462 3.752 20.7755 3.752C21.2288 3.752 21.6315 3.82667 21.9835 3.976C22.3355 4.12533 22.6315 4.33333 22.8715 4.6C23.1115 4.86667 23.2928 5.18933 23.4155 5.568C23.5382 5.94667 23.5995 6.36267 23.5995 6.816V12H22.9675C22.8288 12 22.7222 11.9787 22.6475 11.936C22.5728 11.888 22.5142 11.7973 22.4715 11.664L22.3115 10.896C22.0982 11.0933 21.8902 11.2693 21.6875 11.424C21.4848 11.5733 21.2715 11.7013 21.0475 11.808C20.8235 11.9093 20.5835 11.9867 20.3275 12.04C20.0768 12.0987 19.7968 12.128 19.4875 12.128C19.1728 12.128 18.8768 12.0853 18.5995 12C18.3222 11.9093 18.0795 11.776 17.8715 11.6C17.6688 11.424 17.5062 11.2027 17.3835 10.936C17.2662 10.664 17.2075 10.344 17.2075 9.976C17.2075 9.656 17.2955 9.34933 17.4715 9.056C17.6475 8.75733 17.9328 8.49333 18.3275 8.264C18.7222 8.03467 19.2368 7.848 19.8715 7.704C20.5062 7.55467 21.2848 7.46933 22.2075 7.448V6.816C22.2075 6.18667 22.0715 5.712 21.7995 5.392C21.5275 5.06667 21.1302 4.904 20.6075 4.904C20.2555 4.904 19.9595 4.94933 19.7195 5.04C19.4848 5.12533 19.2795 5.224 19.1035 5.336C18.9328 5.44267 18.7835 5.54133 18.6555 5.632C18.5328 5.71733 18.4102 5.76 18.2875 5.76C18.1915 5.76 18.1088 5.736 18.0395 5.688C17.9702 5.63467 17.9115 5.57067 17.8635 5.496L17.6075 5.04ZM27.1206 5.52C27.3766 4.96533 27.6913 4.53333 28.0646 4.224C28.438 3.90933 28.894 3.752 29.4326 3.752C29.6033 3.752 29.766 3.77067 29.9206 3.808C30.0806 3.84533 30.222 3.904 30.3446 3.984L30.2406 5.048C30.2086 5.18133 30.1286 5.248 30.0006 5.248C29.926 5.248 29.8166 5.232 29.6726 5.2C29.5286 5.168 29.366 5.152 29.1846 5.152C28.9286 5.152 28.6993 5.18933 28.4966 5.264C28.2993 5.33867 28.1206 5.45067 27.9606 5.6C27.806 5.744 27.6646 5.92533 27.5366 6.144C27.414 6.35733 27.302 6.60267 27.2006 6.88V12H25.7686V3.896H26.5846C26.7393 3.896 26.846 3.92533 26.9046 3.984C26.9633 4.04267 27.0033 4.144 27.0246 4.288L27.1206 5.52ZM36.2699 5.232C36.2059 5.34933 36.1072 5.408 35.9739 5.408C35.8939 5.408 35.8032 5.37867 35.7019 5.32C35.6005 5.26133 35.4752 5.19733 35.3259 5.128C35.1819 5.05333 35.0085 4.98667 34.8059 4.928C34.6032 4.864 34.3632 4.832 34.0859 4.832C33.8459 4.832 33.6299 4.864 33.4379 4.928C33.2459 4.98667 33.0805 5.06933 32.9419 5.176C32.8085 5.28267 32.7045 5.408 32.6299 5.552C32.5605 5.69067 32.5259 5.84267 32.5259 6.008C32.5259 6.216 32.5845 6.38933 32.7019 6.528C32.8245 6.66667 32.9845 6.78667 33.1819 6.888C33.3792 6.98933 33.6032 7.08 33.8539 7.16C34.1045 7.23467 34.3605 7.31733 34.6219 7.408C34.8885 7.49333 35.1472 7.58933 35.3979 7.696C35.6485 7.80267 35.8725 7.936 36.0699 8.096C36.2672 8.256 36.4245 8.45333 36.5419 8.688C36.6645 8.91733 36.7259 9.19467 36.7259 9.52C36.7259 9.89333 36.6592 10.24 36.5259 10.56C36.3925 10.8747 36.1952 11.1493 35.9339 11.384C35.6725 11.6133 35.3525 11.7947 34.9739 11.928C34.5952 12.0613 34.1579 12.128 33.6619 12.128C33.0965 12.128 32.5845 12.0373 32.1259 11.856C31.6672 11.6693 31.2779 11.432 30.9579 11.144L31.2939 10.6C31.3365 10.5307 31.3872 10.4773 31.4459 10.44C31.5045 10.4027 31.5792 10.384 31.6699 10.384C31.7659 10.384 31.8672 10.4213 31.9739 10.496C32.0805 10.5707 32.2085 10.6533 32.3579 10.744C32.5125 10.8347 32.6992 10.9173 32.9179 10.992C33.1365 11.0667 33.4085 11.104 33.7339 11.104C34.0112 11.104 34.2539 11.0693 34.4619 11C34.6699 10.9253 34.8432 10.8267 34.9819 10.704C35.1205 10.5813 35.2219 10.44 35.2859 10.28C35.3552 10.12 35.3899 9.94933 35.3899 9.768C35.3899 9.544 35.3285 9.36 35.2059 9.216C35.0885 9.06667 34.9312 8.94133 34.7339 8.84C34.5365 8.73333 34.3099 8.64267 34.0539 8.568C33.8032 8.488 33.5445 8.40533 33.2779 8.32C33.0165 8.23467 32.7579 8.13867 32.5019 8.032C32.2512 7.92 32.0272 7.78133 31.8299 7.616C31.6325 7.45067 31.4725 7.248 31.3499 7.008C31.2325 6.76267 31.1739 6.46667 31.1739 6.12C31.1739 5.81067 31.2379 5.51467 31.3659 5.232C31.4939 4.944 31.6805 4.69333 31.9259 4.48C32.1712 4.26133 32.4725 4.088 32.8299 3.96C33.1872 3.832 33.5952 3.768 34.0539 3.768C34.5872 3.768 35.0645 3.85333 35.4859 4.024C35.9125 4.18933 36.2805 4.41867 36.5899 4.712L36.2699 5.232ZM45.9815 3.768C46.5735 3.768 47.1068 3.86667 47.5815 4.064C48.0562 4.26133 48.4615 4.54133 48.7975 4.904C49.1335 5.26667 49.3895 5.70667 49.5655 6.224C49.7468 6.736 49.8375 7.30933 49.8375 7.944C49.8375 8.584 49.7468 9.16 49.5655 9.672C49.3895 10.184 49.1335 10.6213 48.7975 10.984C48.4615 11.3467 48.0562 11.6267 47.5815 11.824C47.1068 12.016 46.5735 12.112 45.9815 12.112C45.3842 12.112 44.8455 12.016 44.3655 11.824C43.8908 11.6267 43.4855 11.3467 43.1495 10.984C42.8135 10.6213 42.5548 10.184 42.3735 9.672C42.1975 9.16 42.1095 8.584 42.1095 7.944C42.1095 7.30933 42.1975 6.736 42.3735 6.224C42.5548 5.70667 42.8135 5.26667 43.1495 4.904C43.4855 4.54133 43.8908 4.26133 44.3655 4.064C44.8455 3.86667 45.3842 3.768 45.9815 3.768ZM45.9815 11C46.7815 11 47.3788 10.7333 47.7735 10.2C48.1682 9.66133 48.3655 8.912 48.3655 7.952C48.3655 6.98667 48.1682 6.23467 47.7735 5.696C47.3788 5.15733 46.7815 4.888 45.9815 4.888C45.5762 4.888 45.2215 4.95733 44.9175 5.096C44.6188 5.23467 44.3682 5.43467 44.1655 5.696C43.9682 5.95733 43.8188 6.28 43.7175 6.664C43.6215 7.04267 43.5735 7.472 43.5735 7.952C43.5735 8.912 43.7708 9.66133 44.1655 10.2C44.5655 10.7333 45.1708 11 45.9815 11ZM51.9998 12V5.112L51.1038 5.008C50.9918 4.98133 50.8984 4.94133 50.8238 4.888C50.7544 4.82933 50.7198 4.74667 50.7198 4.64V4.056H51.9998V3.272C51.9998 2.808 52.0638 2.39733 52.1918 2.04C52.3251 1.67733 52.5118 1.37333 52.7518 1.128C52.9971 0.877333 53.2904 0.688 53.6318 0.559999C53.9731 0.431999 54.3571 0.367999 54.7838 0.367999C55.1464 0.367999 55.4798 0.421333 55.7838 0.528L55.7518 1.24C55.7411 1.368 55.6691 1.43733 55.5358 1.448C55.4078 1.45867 55.2344 1.464 55.0158 1.464C54.7704 1.464 54.5464 1.496 54.3438 1.56C54.1464 1.624 53.9758 1.728 53.8318 1.872C53.6878 2.016 53.5758 2.20533 53.4958 2.44C53.4211 2.67467 53.3838 2.96533 53.3838 3.312V4.056H55.7198V5.088H53.4318V12H51.9998ZM66.302 7.064C66.302 6.73333 66.254 6.432 66.158 6.16C66.0673 5.88267 65.9313 5.64533 65.75 5.448C65.574 5.24533 65.358 5.09067 65.102 4.984C64.846 4.872 64.5553 4.816 64.23 4.816C63.5473 4.816 63.006 5.016 62.606 5.416C62.2113 5.81067 61.966 6.36 61.87 7.064H66.302ZM67.454 10.864C67.278 11.0773 67.0673 11.264 66.822 11.424C66.5767 11.5787 66.3127 11.7067 66.03 11.808C65.7527 11.9093 65.4647 11.984 65.166 12.032C64.8673 12.0853 64.5713 12.112 64.278 12.112C63.718 12.112 63.2007 12.0187 62.726 11.832C62.2567 11.64 61.8487 11.3627 61.502 11C61.1607 10.632 60.894 10.1787 60.702 9.64C60.51 9.10133 60.414 8.48267 60.414 7.784C60.414 7.21867 60.4993 6.69067 60.67 6.2C60.846 5.70933 61.0967 5.28533 61.422 4.928C61.7473 4.56533 62.1447 4.28267 62.614 4.08C63.0833 3.872 63.6113 3.768 64.198 3.768C64.6833 3.768 65.1313 3.85067 65.542 4.016C65.958 4.176 66.3153 4.41067 66.614 4.72C66.918 5.024 67.1553 5.40267 67.326 5.856C67.4967 6.304 67.582 6.816 67.582 7.392C67.582 7.616 67.558 7.76533 67.51 7.84C67.462 7.91467 67.3713 7.952 67.238 7.952H61.822C61.838 8.464 61.9073 8.90933 62.03 9.288C62.158 9.66667 62.334 9.984 62.558 10.24C62.782 10.4907 63.0487 10.68 63.358 10.808C63.6673 10.9307 64.014 10.992 64.398 10.992C64.7553 10.992 65.062 10.952 65.318 10.872C65.5793 10.7867 65.8033 10.696 65.99 10.6C66.1767 10.504 66.3313 10.416 66.454 10.336C66.582 10.2507 66.6913 10.208 66.782 10.208C66.8993 10.208 66.99 10.2533 67.054 10.344L67.454 10.864ZM75.8778 12H74.5098C74.3924 12 74.2991 11.9707 74.2298 11.912C74.1658 11.848 74.1124 11.7787 74.0698 11.704L72.0298 8.528C72.0084 8.60267 71.9844 8.67733 71.9578 8.752C71.9364 8.82133 71.9044 8.88533 71.8618 8.944L69.9738 11.704C69.9204 11.7787 69.8618 11.848 69.7978 11.912C69.7391 11.9707 69.6564 12 69.5498 12H68.2778L71.1178 7.84L68.3898 3.896H69.7578C69.8751 3.896 69.9604 3.91467 70.0138 3.952C70.0671 3.98933 70.1151 4.04267 70.1578 4.112L72.1498 7.152C72.1924 6.99733 72.2591 6.848 72.3498 6.704L74.0938 4.144C74.1418 4.06933 74.1924 4.01067 74.2458 3.968C74.3044 3.92 74.3738 3.896 74.4538 3.896H75.7658L73.0378 7.768L75.8778 12ZM78.6225 10.048C78.8838 10.4 79.1692 10.648 79.4785 10.792C79.7878 10.936 80.1345 11.008 80.5185 11.008C81.2758 11.008 81.8572 10.7387 82.2625 10.2C82.6678 9.66133 82.8705 8.89333 82.8705 7.896C82.8705 7.368 82.8225 6.91467 82.7265 6.536C82.6358 6.15733 82.5025 5.848 82.3265 5.608C82.1505 5.36267 81.9345 5.184 81.6785 5.072C81.4225 4.96 81.1318 4.904 80.8065 4.904C80.3425 4.904 79.9345 5.01067 79.5825 5.224C79.2358 5.43733 78.9158 5.73867 78.6225 6.128V10.048ZM78.5505 5.152C78.8918 4.73067 79.2865 4.392 79.7345 4.136C80.1825 3.88 80.6945 3.752 81.2705 3.752C81.7398 3.752 82.1638 3.84267 82.5425 4.024C82.9212 4.2 83.2438 4.464 83.5105 4.816C83.7772 5.16267 83.9825 5.59467 84.1265 6.112C84.2705 6.62933 84.3425 7.224 84.3425 7.896C84.3425 8.49333 84.2625 9.05067 84.1025 9.568C83.9425 10.08 83.7105 10.5253 83.4065 10.904C83.1078 11.2773 82.7398 11.5733 82.3025 11.792C81.8705 12.0053 81.3825 12.112 80.8385 12.112C80.3425 12.112 79.9158 12.0293 79.5585 11.864C79.2065 11.6933 78.8945 11.4587 78.6225 11.16V14.744H77.1905V3.896H78.0465C78.2492 3.896 78.3745 3.99467 78.4225 4.192L78.5505 5.152ZM91.5833 7.064C91.5833 6.73333 91.5353 6.432 91.4393 6.16C91.3486 5.88267 91.2126 5.64533 91.0313 5.448C90.8553 5.24533 90.6393 5.09067 90.3833 4.984C90.1273 4.872 89.8366 4.816 89.5113 4.816C88.8286 4.816 88.2873 5.016 87.8873 5.416C87.4926 5.81067 87.2473 6.36 87.1513 7.064H91.5833ZM92.7353 10.864C92.5593 11.0773 92.3486 11.264 92.1033 11.424C91.8579 11.5787 91.5939 11.7067 91.3113 11.808C91.0339 11.9093 90.7459 11.984 90.4473 12.032C90.1486 12.0853 89.8526 12.112 89.5593 12.112C88.9993 12.112 88.4819 12.0187 88.0073 11.832C87.5379 11.64 87.1299 11.3627 86.7833 11C86.4419 10.632 86.1753 10.1787 85.9833 9.64C85.7913 9.10133 85.6953 8.48267 85.6953 7.784C85.6953 7.21867 85.7806 6.69067 85.9513 6.2C86.1273 5.70933 86.3779 5.28533 86.7033 4.928C87.0286 4.56533 87.4259 4.28267 87.8953 4.08C88.3646 3.872 88.8926 3.768 89.4793 3.768C89.9646 3.768 90.4126 3.85067 90.8233 4.016C91.2393 4.176 91.5966 4.41067 91.8953 4.72C92.1993 5.024 92.4366 5.40267 92.6073 5.856C92.7779 6.304 92.8633 6.816 92.8633 7.392C92.8633 7.616 92.8393 7.76533 92.7913 7.84C92.7433 7.91467 92.6526 7.952 92.5193 7.952H87.1033C87.1193 8.464 87.1886 8.90933 87.3113 9.288C87.4393 9.66667 87.6153 9.984 87.8393 10.24C88.0633 10.4907 88.3299 10.68 88.6393 10.808C88.9486 10.9307 89.2953 10.992 89.6793 10.992C90.0366 10.992 90.3433 10.952 90.5993 10.872C90.8606 10.7867 91.0846 10.696 91.2713 10.6C91.4579 10.504 91.6126 10.416 91.7353 10.336C91.8633 10.2507 91.9726 10.208 92.0633 10.208C92.1806 10.208 92.2713 10.2533 92.3353 10.344L92.7353 10.864ZM95.9644 5.52C96.2204 4.96533 96.535 4.53333 96.9084 4.224C97.2817 3.90933 97.7377 3.752 98.2764 3.752C98.447 3.752 98.6097 3.77067 98.7644 3.808C98.9244 3.84533 99.0657 3.904 99.1884 3.984L99.0844 5.048C99.0524 5.18133 98.9724 5.248 98.8444 5.248C98.7697 5.248 98.6604 5.232 98.5164 5.2C98.3724 5.168 98.2097 5.152 98.0284 5.152C97.7724 5.152 97.543 5.18933 97.3404 5.264C97.143 5.33867 96.9644 5.45067 96.8044 5.6C96.6497 5.744 96.5084 5.92533 96.3804 6.144C96.2577 6.35733 96.1457 6.60267 96.0444 6.88V12H94.6124V3.896H95.4284C95.583 3.896 95.6897 3.92533 95.7484 3.984C95.807 4.04267 95.847 4.144 95.8684 4.288L95.9644 5.52ZM101.945 3.896V12H100.521V3.896H101.945ZM102.249 1.352C102.249 1.49067 102.219 1.62133 102.161 1.744C102.107 1.86133 102.033 1.968 101.937 2.064C101.846 2.15467 101.737 2.22667 101.609 2.28C101.486 2.33333 101.355 2.36 101.217 2.36C101.078 2.36 100.947 2.33333 100.825 2.28C100.707 2.22667 100.603 2.15467 100.513 2.064C100.422 1.968 100.35 1.86133 100.297 1.744C100.243 1.62133 100.217 1.49067 100.217 1.352C100.217 1.21333 100.243 1.08267 100.297 0.959999C100.35 0.831999 100.422 0.722666 100.513 0.631999C100.603 0.536 100.707 0.461333 100.825 0.407999C100.947 0.354666 101.078 0.327999 101.217 0.327999C101.355 0.327999 101.486 0.354666 101.609 0.407999C101.737 0.461333 101.846 0.536 101.937 0.631999C102.033 0.722666 102.107 0.831999 102.161 0.959999C102.219 1.08267 102.249 1.21333 102.249 1.352ZM109.708 7.064C109.708 6.73333 109.66 6.432 109.564 6.16C109.474 5.88267 109.338 5.64533 109.156 5.448C108.98 5.24533 108.764 5.09067 108.508 4.984C108.252 4.872 107.962 4.816 107.636 4.816C106.954 4.816 106.412 5.016 106.012 5.416C105.618 5.81067 105.372 6.36 105.276 7.064H109.708ZM110.86 10.864C110.684 11.0773 110.474 11.264 110.228 11.424C109.983 11.5787 109.719 11.7067 109.436 11.808C109.159 11.9093 108.871 11.984 108.572 12.032C108.274 12.0853 107.978 12.112 107.684 12.112C107.124 12.112 106.607 12.0187 106.132 11.832C105.663 11.64 105.255 11.3627 104.908 11C104.567 10.632 104.3 10.1787 104.108 9.64C103.916 9.10133 103.82 8.48267 103.82 7.784C103.82 7.21867 103.906 6.69067 104.076 6.2C104.252 5.70933 104.503 5.28533 104.828 4.928C105.154 4.56533 105.551 4.28267 106.02 4.08C106.49 3.872 107.018 3.768 107.604 3.768C108.09 3.768 108.538 3.85067 108.948 4.016C109.364 4.176 109.722 4.41067 110.02 4.72C110.324 5.024 110.562 5.40267 110.732 5.856C110.903 6.304 110.988 6.816 110.988 7.392C110.988 7.616 110.964 7.76533 110.916 7.84C110.868 7.91467 110.778 7.952 110.644 7.952H105.228C105.244 8.464 105.314 8.90933 105.436 9.288C105.564 9.66667 105.74 9.984 105.964 10.24C106.188 10.4907 106.455 10.68 106.764 10.808C107.074 10.9307 107.42 10.992 107.804 10.992C108.162 10.992 108.468 10.952 108.724 10.872C108.986 10.7867 109.21 10.696 109.396 10.6C109.583 10.504 109.738 10.416 109.86 10.336C109.988 10.2507 110.098 10.208 110.188 10.208C110.306 10.208 110.396 10.2533 110.46 10.344L110.86 10.864ZM114.081 5.072C114.257 4.87467 114.444 4.696 114.641 4.536C114.839 4.376 115.047 4.24 115.265 4.128C115.489 4.01067 115.724 3.92267 115.969 3.864C116.22 3.8 116.489 3.768 116.777 3.768C117.22 3.768 117.609 3.84267 117.945 3.992C118.287 4.136 118.569 4.344 118.793 4.616C119.023 4.88267 119.196 5.20533 119.313 5.584C119.431 5.96267 119.489 6.38133 119.489 6.84V12H118.057V6.84C118.057 6.22667 117.916 5.752 117.633 5.416C117.356 5.07467 116.932 4.904 116.361 4.904C115.94 4.904 115.545 5.00533 115.177 5.208C114.815 5.41067 114.479 5.68533 114.169 6.032V12H112.737V3.896H113.593C113.796 3.896 113.921 3.99467 113.969 4.192L114.081 5.072ZM127.299 5.336C127.257 5.39467 127.214 5.44 127.171 5.472C127.129 5.504 127.07 5.52 126.995 5.52C126.915 5.52 126.827 5.488 126.731 5.424C126.635 5.35467 126.515 5.28 126.371 5.2C126.233 5.12 126.059 5.048 125.851 4.984C125.649 4.91467 125.398 4.88 125.099 4.88C124.699 4.88 124.347 4.952 124.043 5.096C123.739 5.23467 123.483 5.43733 123.275 5.704C123.073 5.97067 122.918 6.29333 122.811 6.672C122.71 7.05067 122.659 7.47467 122.659 7.944C122.659 8.43467 122.715 8.872 122.827 9.256C122.939 9.63467 123.097 9.95467 123.299 10.216C123.507 10.472 123.755 10.6693 124.043 10.808C124.337 10.9413 124.665 11.008 125.027 11.008C125.374 11.008 125.659 10.968 125.883 10.888C126.107 10.8027 126.291 10.7093 126.435 10.608C126.585 10.5067 126.707 10.416 126.803 10.336C126.905 10.2507 127.003 10.208 127.099 10.208C127.217 10.208 127.307 10.2533 127.371 10.344L127.771 10.864C127.595 11.0827 127.395 11.2693 127.171 11.424C126.947 11.5787 126.705 11.7093 126.443 11.816C126.187 11.9173 125.918 11.992 125.635 12.04C125.353 12.088 125.065 12.112 124.771 12.112C124.265 12.112 123.793 12.0187 123.355 11.832C122.923 11.6453 122.547 11.376 122.227 11.024C121.907 10.6667 121.657 10.2293 121.475 9.712C121.294 9.19467 121.203 8.60533 121.203 7.944C121.203 7.34133 121.286 6.784 121.451 6.272C121.622 5.76 121.867 5.32 122.187 4.952C122.513 4.57867 122.91 4.288 123.379 4.08C123.854 3.872 124.398 3.768 125.011 3.768C125.582 3.768 126.083 3.86133 126.515 4.048C126.953 4.22933 127.339 4.488 127.675 4.824L127.299 5.336ZM134.583 7.064C134.583 6.73333 134.535 6.432 134.439 6.16C134.349 5.88267 134.213 5.64533 134.031 5.448C133.855 5.24533 133.639 5.09067 133.383 4.984C133.127 4.872 132.837 4.816 132.511 4.816C131.829 4.816 131.287 5.016 130.887 5.416C130.493 5.81067 130.247 6.36 130.151 7.064H134.583ZM135.735 10.864C135.559 11.0773 135.349 11.264 135.103 11.424C134.858 11.5787 134.594 11.7067 134.311 11.808C134.034 11.9093 133.746 11.984 133.447 12.032C133.149 12.0853 132.853 12.112 132.559 12.112C131.999 12.112 131.482 12.0187 131.007 11.832C130.538 11.64 130.13 11.3627 129.783 11C129.442 10.632 129.175 10.1787 128.983 9.64C128.791 9.10133 128.695 8.48267 128.695 7.784C128.695 7.21867 128.781 6.69067 128.951 6.2C129.127 5.70933 129.378 5.28533 129.703 4.928C130.029 4.56533 130.426 4.28267 130.895 4.08C131.365 3.872 131.893 3.768 132.479 3.768C132.965 3.768 133.413 3.85067 133.823 4.016C134.239 4.176 134.597 4.41067 134.895 4.72C135.199 5.024 135.437 5.40267 135.607 5.856C135.778 6.304 135.863 6.816 135.863 7.392C135.863 7.616 135.839 7.76533 135.791 7.84C135.743 7.91467 135.653 7.952 135.519 7.952H130.103C130.119 8.464 130.189 8.90933 130.311 9.288C130.439 9.66667 130.615 9.984 130.839 10.24C131.063 10.4907 131.33 10.68 131.639 10.808C131.949 10.9307 132.295 10.992 132.679 10.992C133.037 10.992 133.343 10.952 133.599 10.872C133.861 10.7867 134.085 10.696 134.271 10.6C134.458 10.504 134.613 10.416 134.735 10.336C134.863 10.2507 134.973 10.208 135.063 10.208C135.181 10.208 135.271 10.2533 135.335 10.344L135.735 10.864Z" fill="#1E212C"/>
</svg>
